<svg xmlns="http://www.w3.org/2000/svg" viewBox="0 0 512 512">
  <rect width="512" height="512" rx="96" fill="#0a0a0a"/>
  <rect x="20" y="20" width="472" height="472" rx="80" fill="none" stroke="#CA8A04" stroke-width="3" opacity="0.3"/>
  <!-- K-line candles -->
  <rect x="100" y="200" width="40" height="140" rx="4" fill="#4caf50" opacity="0.9"/>
  <line x1="120" y1="170" x2="120" y2="200" stroke="#4caf50" stroke-width="4" stroke-linecap="round"/>
  <line x1="120" y1="340" x2="120" y2="370" stroke="#4caf50" stroke-width="4" stroke-linecap="round"/>

  <rect x="180" y="140" width="40" height="180" rx="4" fill="#4caf50" opacity="0.9"/>
  <line x1="200" y1="110" x2="200" y2="140" stroke="#4caf50" stroke-width="4" stroke-linecap="round"/>
  <line x1="200" y1="320" x2="200" y2="360" stroke="#4caf50" stroke-width="4" stroke-linecap="round"/>

  <rect x="260" y="160" width="40" height="120" rx="4" fill="#f44336" opacity="0.9"/>
  <line x1="280" y1="130" x2="280" y2="160" stroke="#f44336" stroke-width="4" stroke-linecap="round"/>
  <line x1="280" y1="280" x2="280" y2="320" stroke="#f44336" stroke-width="4" stroke-linecap="round"/>

  <rect x="340" y="120" width="40" height="160" rx="4" fill="#CA8A04" opacity="0.9"/>
  <line x1="360" y1="90" x2="360" y2="120" stroke="#CA8A04" stroke-width="4" stroke-linecap="round"/>
  <line x1="360" y1="280" x2="360" y2="310" stroke="#CA8A04" stroke-width="4" stroke-linecap="round"/>

  <!-- Trend line -->
  <polyline points="120,260 200,220 280,230 360,180" fill="none" stroke="#FBBF24" stroke-width="4" stroke-linecap="round" stroke-linejoin="round" opacity="0.7"/>
  <circle cx="360" cy="180" r="6" fill="#FBBF24"/>

  <!-- Text -->
  <text x="256" y="430" text-anchor="middle" font-family="sans-serif" font-weight="700" font-size="56" fill="#F8FAFC">止盈推演</text>
</svg>
